/* XPM */
static char *_d6ce48e13a046cae2be3a70eba9f93621T9Gsr3HZB9EBWu[] = {
/* columns rows colors chars-per-pixel */
"64 64 140 2 ",
"   c None",
".  c #010101",
"X  c #0A0604",
"o  c #0C0807",
"O  c #080708",
"+  c #070808",
"@  c #0C0A0A",
"#  c #110A03",
"$  c #140E0B",
"%  c #1F1205",
"&  c #1A110B",
"*  c #110F11",
"=  c #0F1111",
"-  c #121314",
";  c #1B1B1D",
":  c #251302",
">  c #2C1702",
",  c #22170C",
"<  c #3A1E02",
"1  c #2E1E11",
"2  c #3A261F",
"3  c #201D20",
"4  c #1F2223",
"5  c #232325",
"6  c #2B272B",
"7  c #292E2E",
"8  c #352621",
"9  c #3C2B25",
"0  c #322D32",
"q  c #373137",
"w  c #3A343A",
"e  c #34393A",
"r  c #3F383F",
"t  c #532C03",
"y  c #462E19",
"u  c #5E3710",
"i  c #55381F",
"p  c #422B23",
"a  c #45312B",
"s  c #52362B",
"d  c #4F3831",
"f  c #513A32",
"g  c #583C32",
"h  c #5E423A",
"j  c #7F552E",
"k  c #624134",
"l  c #654539",
"z  c #6B4739",
"x  c #66483F",
"c  c #3A3F40",
"v  c #433C43",
"b  c #3A4242",
"n  c #4F474F",
"m  c #434B4C",
"M  c #4A4F50",
"N  c #544B54",
"B  c #525759",
"V  c #5E545E",
"C  c #555B5D",
"Z  c #585D5F",
"A  c #715046",
"S  c #7B5342",
"D  c #79564B",
"F  c #625761",
"G  c #665C66",
"H  c #695E69",
"J  c #6A5D65",
"K  c #5A6264",
"L  c #6D626D",
"P  c #62686A",
"I  c #676D70",
"U  c #686E70",
"Y  c #726672",
"T  c #7A6D79",
"R  c #647071",
"E  c #6B7274",
"W  c #8D4B06",
"Q  c #BB6E20",
"!  c #A06B3A",
"~  c #D77208",
"^  c #D97309",
"/  c #E27709",
"(  c #805B4F",
")  c #905F4C",
"_  c #93614D",
"`  c #8C6456",
"'  c #9A6651",
"]  c #906659",
"[  c #9D6B59",
"{  c #A46C56",
"}  c #A77767",
"|  c #BC7C63",
" . c #FA840A",
".. c #FC942C",
"X. c #CC884A",
"o. c #D8904E",
"O. c #E59853",
"+. c #F4A258",
"@. c #FDA85C",
"#. c #C0836D",
"$. c #C68C7A",
"%. c #767D80",
"&. c #837683",
"*. c #877987",
"=. c #8A7C8A",
"-. c #79888A",
";. c #748385",
":. c #8F808F",
">. c #95838E",
",. c #878F92",
"<. c #918291",
"1. c #869799",
"2. c #8D9699",
"3. c #87989A",
"4. c #889598",
"5. c #9AADB0",
"6. c #9FB4B6",
"7. c #A3ADB1",
"8. c #A7B2B5",
"9. c #A8B3B6",
"0. c #A7BDBF",
"q. c #ADC4C6",
"w. c #AFC6C8",
"e. c #BAC6CC",
"r. c #B3CACD",
"t. c #BDC9CD",
"y. c #BAD2D5",
"u. c #BFD8DA",
"i. c #CAD7DB",
"p. c #CCD9DD",
"a. c #C5DFE2",
"s. c #C6E0E3",
"d. c #C9E3E6",
"f. c #CCE5E8",
"g. c #D4E1E6",
"h. c #D1E7EB",
"j. c #DAE7EC",
"k. c #D3E8EC",
"l. c #D9EAEE",
"z. c #DEECF1",
/* pixels */
"                                                                                                                                ",
"                                                                                                                                ",
"                                                                                                                                ",
"                                                                                                                                ",
"                                                                                                                                ",
"                                                                                                                                ",
"                                                                                            . .                                 ",
"                                                                          . . .           . X . .                               ",
"                                                                        . . 5 . .     . . + ] ( . .                             ",
"                                                                      . . v <.n . . . . . f $.$.S . .                           ",
"                                                                    . . v <.<.<.3 . . . . . A #.| S . .                         ",
"                                                                    . @ *.<.<.w . & 1 . j X . z | _ X .                         ",
"                                                                    . . ; *.w . & o.& . +.Q X . s X .                           ",
"                                                                      . . @ . & o.O.. 1 .. .W . . .                             ",
"                                                                        . . & o.@.! . % < X . . . .                             ",
"                                                                        . . i y # . . . . # > . . .                             ",
"                                                                      . . . . . X X . W ^ / : . .                               ",
"                                                                      . . . , X...# X  ./ : . ; . .                             ",
"                                                                    . X D & . u ~ . < / : . 0 :.n . .                           ",
"                                                                  . X ] $.} & . : . t : . 0 :.<.<.n . .                         ",
"                                                                . X ] $.$.#.{ $ . . . . @ *.<.<.<.<.n . .                       ",
"                                                              . . ` $.$.#.| | S . . . . . w <.<.<.<.<.n . .                     ",
"                                                            . . $ $.$.#.| | _ X . .     . . Y <.<.<.<.<.N . . .         . . .   ",
"                                                          . . . 9 $.#.| | _ X .           . q <.<.<.<.<.<.L ; . . . . . . + . . ",
"                                                        . X 9 . x #.| | _ X .             . + *.<.<.<.<.<.<.<.L v . - K ,.u.- . ",
"                                                      . X ] a . l z p & . .               . . L <.<.<.<.<.<.<.<.&.. e z.k.f.- . ",
"                                                    . . a d o . . . . . .                 . . V <.<.<.<.<.<.<.<.T . c z.h.f.= . ",
"                                                  . . . . . . X 2 2 . .                     . n <.<.<.<.<.<.<.<.L . B z.f.a.. . ",
"                                                . . o 8 h g . p _ X .                     . . N <.<.<.<.<.<.<.<.N . %.z.f.w.. . ",
"                                              . X ` $.$.#.k . p X .                       . . L <.<.<.<.<.<.<.<.6 . 8.z.f.1.. . ",
"                                            . X ] $.$.#.| 2 . . .                         . + =.<.<.<.<.<.<.<.*.+ - j.k.f.K .   ",
"                                          . X ] $.$.#.| | $ . .                           . 0 <.<.<.<.<.<.<.<.n . K z.f.f.; .   ",
"                                        . X ] $.$.#.| | ) . .                           . . T <.<.<.<.<.<.<.*.@ . t.l.f.0.. .   ",
"                                      . X ] $.$.#.| | _ X .                           . . v <.<.<.<.<.<.<.<.w . Z z.h.f.r.5     ",
"                                    . X ] $.$.#.| | _ X .                           . . 6 :.<.<.<.<.<.<.<.V . - p.l.f.f.f.      ",
"                                  . . o } $.#.| | _ X .                         . . . 0 =.<.<.<.<.<.<.<.H + . 7.z.f.f.0.e.      ",
"                                . + 0 . o [ | | _ X .                       . . . * V <.<.<.<.<.<.<.<.V . . ,.z.h.f.3.. +       ",
"                              . + H <.v . o ' _ X .                       . . 6 F :.<.<.<.<.<.<.<.&.0 . + 2.z.k.f.w.@ .         ",
"                            . + H <.<.&.q . o X .                         . v <.<.<.<.<.<.<.<.&.v O . ; 9.z.k.f.y.4 . .         ",
"                          . + H <.<.&.T T 6 . .                           . - v V L Y H V v ; . . + P g.z.h.f.y.7 . .           ",
"                        . + H <.<.&.T T V + .                             . . . . . . . . . . 4 E i.z.l.f.f.q.; . .             ",
"                      . + H <.<.&.T T V + .                               . B 2.U C M C I 4.e.z.z.l.f.f.f.-.@ . .               ",
"                    . + H <.<.&.T T V + .                                 . E z.z.z.z.z.z.z.l.k.f.f.f.6.e . .                   ",
"                    0 L <.<.&.T T V + .                                   . R h.h.h.h.f.f.f.f.f.s.3.b . . .                     ",
"                  >.<.<.<.&.T T V + .                                     . c 5.r.s.f.s.r.5.;.m = . . .                         ",
"              . J <.<.<.&.T T V + .                                       . . . . . . . . . . . . .                             ",
"            . + Y <.<.&.T T V + .                                             . . . . . . .                                     ",
"          . + G <.<.&.T T F O .                                                                                                 ",
"        . + G <.<.&.T T F O .                                                                                                   ",
"      . + G <.<.&.T T F O .                                                                                                     ",
"    . + G <.:.&.T T F O .                                                                                                       ",
"  . + H <.<.&.T T V + .                                                                                                         ",
". . H <.<.&.T T V + .                                                                                                           ",
". . n <.&.T T V + .                                                                                                             ",
"  . . v T T V + .                                                                                                               ",
"    . . r F O .                                                                                                                 ",
"      . . . .                                                                                                                   ",
"        . .                                                                                                                     ",
"                                                                                                                                ",
"                                                                                                                                ",
"                                                                                                                                ",
"                                                                                                                                ",
"                                                                                                                                ",
"                                                                                                                                "
};
