/* XPM */
static char *_396974d41c748c08c0cc21ff8a41262vnSrb8hQjYzcXozE[] = {
/* columns rows colors chars-per-pixel */
"64 64 182 2 ",
"   c None",
".  c #010101",
"X  c #0C0B02",
"o  c #050709",
"O  c #07090A",
"+  c #090B0D",
"@  c #151407",
"#  c #0B0E11",
"$  c #0D1114",
"%  c #0F1418",
"&  c #111417",
"*  c #11161A",
"=  c #14191D",
"-  c #221F03",
";  c #272307",
":  c #312C05",
">  c #3D3606",
",  c #2E2B17",
"<  c #151C22",
"1  c #191E23",
"2  c #1B2126",
"3  c #1C242B",
"4  c #172026",
"5  c #1D2730",
"6  c #1F2931",
"7  c #20262C",
"8  c #23292F",
"9  c #2B2D2F",
"0  c #232C34",
"q  c #282F36",
"w  c #242F38",
"e  c #293037",
"r  c #25313C",
"t  c #2C353D",
"y  c #36393B",
"u  c #3B3822",
"i  c #433C09",
"p  c #423E25",
"a  c #524909",
"s  c #595010",
"d  c #675D0B",
"f  c #796C0D",
"g  c #454128",
"h  c #494524",
"j  c #504B2A",
"k  c #66603B",
"l  c #78713E",
"z  c #71682A",
"x  c #293642",
"c  c #2C3944",
"v  c #2E3D4A",
"b  c #323B44",
"n  c #323F4A",
"m  c #33414D",
"M  c #3A444E",
"N  c #344453",
"B  c #3E4953",
"V  c #374A59",
"C  c #3A4C5C",
"Z  c #394754",
"A  c #3B4F60",
"S  c #3E5264",
"D  c #404346",
"F  c #424E5A",
"G  c #45515D",
"H  c #515457",
"J  c #7A7246",
"K  c #415364",
"L  c #495662",
"P  c #4C5966",
"I  c #415769",
"U  c #455A6D",
"Y  c #4F5D6A",
"T  c #505E6C",
"R  c #465D71",
"E  c #485E72",
"W  c #52616E",
"Q  c #4B6276",
"!  c #4D657A",
"~  c #4F687E",
"^  c #546472",
"/  c #50697F",
"(  c #5C6C7C",
")  c #586877",
"_  c #666B6F",
"`  c #686D71",
"'  c #757B7F",
"]  c #85770E",
"[  c #877912",
"{  c #847821",
"}  c #968711",
"|  c #9A8B11",
" . c #A89712",
".. c #B9A614",
"X. c #C3AF15",
"o. c #CBB930",
"O. c #D6C019",
"+. c #ECD41B",
"@. c #FCE41E",
"#. c #E1CD37",
"$. c #EDD732",
"%. c #F2DD3D",
"&. c #F2DA24",
"*. c #FDE625",
"=. c #FCE736",
"-. c #A29859",
";. c #B5A956",
":. c #B2A760",
">. c #BBB06A",
",. c #DBCB53",
"<. c #FCEB57",
"1. c #E7D96A",
"2. c #E2D46D",
"3. c #F8EB7C",
"4. c #4F6A80",
"5. c #526D83",
"6. c #547087",
"7. c #5D7082",
"8. c #56748C",
"9. c #58768E",
"0. c #5B7891",
"q. c #5D7790",
"w. c #627484",
"e. c #657A8D",
"r. c #697C8D",
"t. c #657788",
"y. c #637F9A",
"u. c #6C7F91",
"i. c #6E8194",
"p. c #66819A",
"a. c #6D859B",
"s. c #718699",
"d. c #758A9D",
"f. c #708496",
"g. c #6B89A6",
"h. c #758CA2",
"j. c #788EA2",
"k. c #7B91A5",
"l. c #7D94AA",
"z. c #7F98AF",
"x. c #799BBB",
"c. c #7998B5",
"v. c #7D9FC0",
"b. c #7EA1C2",
"n. c #8097AC",
"m. c #839AAE",
"M. c #8B9EAD",
"N. c #849DB3",
"B. c #839FBA",
"V. c #88A0B7",
"C. c #8BA3BB",
"Z. c #87A2BB",
"A. c #99ABBA",
"S. c #AAB1B8",
"D. c #81A3C5",
"F. c #81A6C9",
"G. c #85A9CD",
"H. c #8BADCE",
"J. c #92ACC4",
"K. c #95AFC8",
"L. c #96B1CA",
"P. c #99B4CD",
"I. c #89B0D6",
"U. c #8EB6DC",
"Y. c #9BB7D1",
"T. c #9DB9D4",
"R. c #92B8DE",
"E. c #9CBEDF",
"W. c #90B6DB",
"Q. c #87ADD2",
"!. c #ADBCC8",
"~. c #A1BED9",
"^. c #95BBE0",
"/. c #B5C2CD",
"(. c #A4C2DD",
"). c #A5C4E2",
"_. c #A8C7E3",
"`. c #ABC9E6",
"'. c #ACCBE8",
"]. c #D3DAE1",
"[. c #DEE8F1",
"{. c #FAFBFC",
/* pixels */
"            . . . . . . . . . . . . . . o     . . . . .                                                                         ",
"              . . ; : ; . . # * * * * % w 8.C = * $ O . . .                                                                     ",
"              . . f +.#.j . 4 Q 5.5.5.5.5.8.6.5.5.4.Q C 6 O . .             . . . .                                             ",
"        . . . . . @ ..*.,.g . 1 U 8.9.8.8.8.8.8.8.5.R 8.8.U 3 . . . . . . . o 3 6 + .                                           ",
"        . . : a i . ; X.=.2.k X O r R 6.8.8.8.8.8.N O 5 S 6.5.c 3 3 3 3 3 3 N 6.8.I + .                                         ",
"          . a +.&.z . -  .=.3.>.p . o w 4.8.8.8.8.C % . = 5.8.8.6.6.8.8.8.8.9.9.9.8.3 . . .                                     ",
"          . . [ @.%.l O X d o.;., . * S 6.8.8.8.8.8.4.N V 8.8.8.9.6.! I C N N N N N * . 2 O . .                                 ",
"            . X } @.<.-., . @ X . w ! 9.8.8.8.8.8.8.8.9.8.8.8.Q m 4 + . . . . . . . . O h.d.e . .                               ",
"              . X f +.<.:.@ . # N 6.8.8.8.8.8.8.8.8.8.8.8.! x # . O 2 M c . y ' 9 . B ) K.`.Y.( * . .                           ",
"                . . > [ , . 1 U 8.8.8.8.8.8.8.8.8.8.8.8.R = . . & w.P.`.f.. _ [.y + V.'._.(.T.Y.k.t . .                         ",
"                  . . . . r 4.9.8.8.p.!.A.9.k./.m.8.8.8.5.S 6 O . = P B.e.. ` S.O 0 T.P.T b 8 1 0 M 8 . .                       ",
"                    . . w 5.8.8.8.6.h.{.].9.A.{.!.6.8.8.8.9.6.U r + . $ 3 . H D . 7.`.P.2 . o # o . O O . .                     ",
"                  . . . c 5.8.4.U ! 9.M.n.8.a.M.i.~ ~ ~ ~ ~ ~ / 5.R c $ . . O . r G.R.E.F . x U U v + . o o .                   ",
"                . X > . 3 Q ! 3 $ C Q ! ~ / ! Q U U U U U U U E Q ! / Q v * . . 3 8.F.R.9.. 6 Q 5.8.I $ . 1 o .                 ",
"              . . d O.; o C E 0 . O r C U U C r % $ $ $ $ $ $ < n U Q ! ~ R v + . . w p.c.* + S ! 5.9.S o 4 M . .               ",
"              . . | @.{ . < U E r O . o # # o . . . . . . . . . . % x S U I r o . . . + K m . 3 R ! 5.6.3 o r.b .               ",
"            . o . > +.$.h . < S Q n o . . . . .                 . . . O $ O . .       . . < o . 3 I ! 5.c . w.C.= .             ",
"          . . ^ n . f *.,.g . + 6 * . .                             . . . . .           . . . . . $ c S r . w.'.w.. .           ",
"          . e T.V.= X } *.1.J @ . . .                                                     . . O 3 + . o o . i.'.T.t .           ",
"        . o s.`.J.M . X ] $.1.u . .                       . .                               . . r q.S 3 + . W L.`.d.O .         ",
"        . t J.^ = . . O . i s . .                           .                                 . . I I.H.h.$ . 1 ^ J.b .         ",
"      . o ^ n . O + o T b o . .                                                                 . + y.R.h.o O + . e ^ o .       ",
"      . * 0 . 3 R N . ^ K.4 .                                                                     . w G.Q . t R 3 . 7 * .       ",
"      . + . = ~ 0.I . M r.o .                   .                                                 . . 8.C . N 6.4.4 . O .       ",
"    . . . . V 8.9.U o 0 e .                 . . . . .                                               . w x . C 5.9.S o . . .     ",
"    . . . $ E 8.9.S . $ O .                 . . . . .                                               . O * . N / 8.5.= . . .     ",
"    . * o < Q 6.9.v . . .                     . . .                                                   . . . w ! 5.8.5 . & .     ",
"    . c + < E 5.4.* . . .                       .                                                     . . . $ I ~ 6.3 O b .     ",
"  . . ! < + I ! c . 3 + .                                                                             . + 3 . w Q U $ = ( o .   ",
"  . O g.C . t v o = ^ o .                                                                             . o E < . c x . B n.+ .   ",
"  . $ x.z.$ o o + i.w..             . .                                                                 . / p.$ o o # n.J.$ .   ",
"  . * b.).Y . + t._.t.+             . .                                                                 . U E.u.# . P _.L.= .   ",
"  . < D.).P.b w.)._.~.                                                                                  . S E._.r.c L.`.P.1 .   ",
"  . < D.).(.Y n.`._.K.(                                                                                 . S E.`.N.P ~._.P.1 .   ",
"  . * v.).r.o 2 n.`.^ .                                                                 . .             . U ).N.7 o w.`.L.= .   ",
"  . $ x.B.= . . < n.w..                                                                 . .             . / z.2 . . * V.J.& .   ",
"  . O g.K . r x . 2 ^ o .                                                                             . o Q 7 . r c . F n.+ .   ",
"  . o 5.1 O U 6.r . 3 + .                                                                             . + 6 . 0 6.~ # 1 7.o .   ",
"    . n # = Q 8.~ % . . .                                                     . .                     . . . # R 9.6.3 + n .     ",
"    . < o < Q 6.9.c . . .                                                   . . .                     . . . w 5.8.6.3 . * .     ",
"    . o . $ U 5.9.S . # o .                                               . . . . .                 . O * . N 5.8.5.< . . .     ",
"    . . . o N ! 6.U o q 0 .                                                 . . .                   . q b . C / 9.U o . . .     ",
"      . # . < U ! S . B t.. .                                                 . .                 . . e.G . N ~ 5.3 . O .       ",
"      . = 3 . 3 I c . W Y.0 .                                                                     . q Y.) . x I 6 . 7 = .       ",
"      . o E 0 . + # . s.'.s.O .                                                                 . O d.'.j.o + + . e ) O .       ",
"        . v c.K * . + k.(.).L . .                                 . .                         . . P ).(.l.$ . $ L J.M .         ",
"        . + g.U.Z.Y o * t W i.0 . .                               . .                       . . e s.^ c = . G C._.l.+ .         ",
"          . x G.^.s.. o o . + 2 o . .                                                     . . O 8 + . o o . i.'.~.b .           ",
"          . o 5.U.6.. w S v % . . . . .                                                 . . . . . $ v R x . w.'.r.o .           ",
"            . < x.9.. w ~ 8.~ w . O < . .                                             . . 2 # . 5 ! 9.0.v . t.J.4 .             ",
"            . . m y.o < E 5.8.5.6 . B G O . .                                     . . O L K . 1 ~ 9.8.6.3 o i.B . .             ",
"              . . C 3 . N ! 5.8.Q # = C.s.8 . . .                             . . . 0 s.J.2 O S 6.8.9.I o 2 G o .               ",
"                . + 3 . $ C Q / 6.r . t.'.P.w.0 O . . . .             . . . . O 0 t.Y.'.i.. 3 Q ~ / I = . 3 + .                 ",
"                  . o O . # c I R v . M (.Y.N.7.t O . . . . . . . . . o . . + c 7.N.Y.).F . c R I c # . . o .                   ",
"                    . . # o . O $ + . & B 7 O . . . . O b ^ P G G P ^ m + . . . . O 3 B = . + $ O . o o . .                     ",
"                      . o w v 2 * < 0 = . o < r c r = o O G P.`.`.Y.L O . = w c r 3 O . * 0 = = 8 M e o .                       ",
"                        . o n g.b.D.T.w.. < R 5.8.8.5.A = . t J.L.b . % C 5.8.9.8.6.3 . ( ~.L.P.N.M o .                         ",
"                          . . 1 9.Q.U.D.3 . m Q / 6.8.9.~ 3 . e t . < I 6.8.8.8.9.S o 1 J.'.(.i.2 . .                           ",
"                            . . o c g.I.q.O O v U ! 5.5.~ x . . . . w U Q ~ 5.~ V # o r.(.l.m o . .                             ",
"                                . . + m y.U + . * w x w * . # ) ( $ . * w t w = . O K a.N + . .                                 ",
"                                    . . O 0 6 o . . . . + x h.).).l.b + . . . . o 3 0 O . .                                     ",
"                                        . . . . . . * x 5.F.U.G.G.W.F.5.c * . . . . . .                                         ",
"                                              . . . . o * g.F.x x F.y.$ O . . . .                                               ",
"                                                    . . .     . .     . . .                                                     "
};
