/* XPM */
static char *_16f84e0a9774911f5827aa2f2e05f79GJm5ixbOO6jZ2Dht[] = {
/* columns rows colors chars-per-pixel */
"64 64 256 2 ",
"   c #010101",
".  c #0B0100",
"X  c #010A02",
"o  c #0C0A03",
"O  c #01030B",
"+  c #0A020A",
"@  c #030B0B",
"#  c #0A0B0B",
"$  c #140100",
"%  c #1B0100",
"&  c #130B02",
"*  c #1B0B01",
"=  c #140B0B",
"-  c #17070B",
";  c #071208",
":  c #181308",
">  c #000212",
",  c #020B14",
"<  c #060616",
"1  c #120D11",
"2  c #120010",
"3  c #081212",
"4  c #171717",
"5  c #230100",
"6  c #2C0100",
"7  c #240D00",
"8  c #290C00",
"9  c #250B0A",
"0  c #320100",
"q  c #3A0301",
"w  c #3A0C00",
"e  c #350A07",
"r  c #251201",
"t  c #291409",
"y  c #361606",
"u  c #240B10",
"i  c #271814",
"p  c #381A19",
"a  c #380A11",
"s  c #2C261B",
"d  c #362417",
"f  c #282626",
"g  c #372829",
"h  c #343336",
"j  c #2D2D31",
"k  c #1C1E1B",
"l  c #470B00",
"z  c #451505",
"x  c #531701",
"c  c #491B15",
"v  c #4A2504",
"b  c #582404",
"n  c #5B320A",
"m  c #462616",
"M  c #53331B",
"N  c #512C18",
"B  c #683917",
"V  c #713311",
"C  c #561D27",
"Z  c #4C2523",
"A  c #5B2A2C",
"S  c #52322E",
"D  c #653836",
"F  c #6C332C",
"G  c #641623",
"H  c #325433",
"J  c #584537",
"K  c #494D3D",
"L  c #775636",
"P  c #734C2F",
"I  c #7D481C",
"U  c #533B41",
"Y  c #6A3F48",
"T  c #3B4248",
"R  c #5A4646",
"E  c #514E4B",
"W  c #6E4643",
"Q  c #794746",
"!  c #6A5145",
"~  c #695A50",
"^  c #765758",
"/  c #724C4E",
"(  c #76625A",
")  c #64645C",
"_  c #6B5E62",
"`  c #6B6A6A",
"'  c #7B7976",
"]  c #7A736D",
"[  c #506254",
"{  c #874918",
"}  c #875B37",
"|  c #90572F",
" . c #956D38",
".. c #A36838",
"X. c #CE793A",
"o. c #83464D",
"O. c #8E554C",
"+. c #A25E5F",
"@. c #986C48",
"#. c #846559",
"$. c #976A57",
"%. c #9C7957",
"&. c #916D4F",
"*. c #A8744B",
"=. c #B77A46",
"-. c #A27A5C",
";. c #A77756",
":. c #B57B55",
">. c #A56B54",
",. c #875B62",
"<. c #876767",
"1. c #9B6869",
"2. c #967C66",
"3. c #8E7774",
"4. c #A76B64",
"5. c #AB7A62",
"6. c #AA6A72",
"7. c #AA7D78",
"8. c #B9746E",
"9. c #DB585C",
"0. c #CB784E",
"q. c #EF7B55",
"w. c #D87568",
"e. c #CF7270",
"r. c #FA7964",
"t. c #E97B75",
"y. c #F87B7A",
"u. c #E6736D",
"i. c #BB8646",
"p. c #A5815D",
"a. c #B88458",
"s. c #B58B51",
"d. c #9A8379",
"f. c #988165",
"g. c #AA8568",
"h. c #B7896A",
"j. c #B6877D",
"k. c #B99477",
"l. c #AF8F75",
"z. c #C4864B",
"x. c #DB8B4B",
"c. c #C88956",
"v. c #D78A53",
"b. c #CA935A",
"n. c #D59358",
"m. c #CD954D",
"M. c #E3844B",
"N. c #E98958",
"B. c #F98857",
"V. c #E49257",
"C. c #CA8667",
"Z. c #D88966",
"A. c #C89566",
"S. c #D69766",
"D. c #C88C7A",
"F. c #D78778",
"G. c #C7977A",
"H. c #D79377",
"J. c #E98169",
"K. c #FC8564",
"L. c #E6887A",
"P. c #E79A71",
"I. c #DAA477",
"U. c #CEA16C",
"Y. c #E4AA79",
"T. c #E1B171",
"R. c #9E7F84",
"E. c #BD7580",
"W. c #EA7B88",
"Q. c #FF7C90",
"!. c #C37583",
"~. c #998A85",
"^. c #928C91",
"/. c #B78886",
"(. c #A79787",
"). c #B99796",
"_. c #B4948E",
"`. c #B9A794",
"'. c #B8ACA5",
"]. c #BF9BA7",
"[. c #C18D89",
"{. c #C79887",
"}. c #D8998B",
"|. c #CE8C93",
" X c #C79695",
".X c #D6979A",
"XX c #DA898E",
"oX c #E98685",
"OX c #FA8C88",
"+X c #E9988C",
"@X c #FA9685",
"#X c #E88C97",
"$X c #F79A92",
"%X c #E79E95",
"&X c #C8A286",
"*X c #D8A699",
"=X c #C8AE98",
"-X c #F5A68A",
";X c #F7A597",
":X c #EAAF95",
">X c #CC96A2",
",X c #EC9AA8",
"<X c #DCBAA6",
"1X c #D7AEB4",
"2X c #D3B9BB",
"3X c #CEAFAC",
"4X c #FDA6A7",
"5X c #E5B5A5",
"6X c #F9B5AA",
"7X c #E7B8B4",
"8X c #FCB9B6",
"9X c #EEAAB1",
"0X c #B8C7B0",
"qX c #D0C8B8",
"wX c #FFC5A9",
"eX c #FEC9B9",
"rX c #FADABC",
"tX c #EAC8B4",
"yX c #AFB8C7",
"uX c #C8BEC3",
"iX c #F2B7C7",
"pX c #D3C8C8",
"aX c #D3DBD9",
"sX c #CACECD",
"dX c #E7C9C5",
"fX c #F9C8C4",
"gX c #FDD5C7",
"hX c #FDC9D9",
"jX c #E7D7D5",
"kX c #FEDDD3",
"lX c #FCD8DA",
"zX c #E8D1C1",
"xX c #D7E6C6",
"cX c #FFEACD",
"vX c #FCE6D7",
"bX c #FFF4DB",
"nX c #FCF9D7",
"mX c #E9E7CF",
"MX c #FCDCE4",
"NX c #EDDEE3",
"BX c #E8E8E9",
"VX c #FFEBE4",
"CX c #FEEEEC",
"ZX c #FBE6E6",
"AX c #FFF4ED",
"SX c #FDFAE8",
"DX c #FFEBF3",
"FX c #FFE6FF",
"GX c #FFECFE",
"HX c #FEE5F5",
"JX c #FFF4F3",
"KX c #FEF3FD",
"LX c #FEFCFC",
"PX c #FDFAF8",
"IX c #E8F2F4",
"UX c #C8CAE1",
/* pixels */
"                                                  @ 3 @ O + + O , , , < + .                                                     ",
"                                                          + +   O @ O O + .                                                     ",
"                                                ; X         . +     O . $ $             .                                       ",
"                                                    X = . . . o @ X . $ % $         . . .                                       ",
"                                                      $ $ $ $ * ; X $ % 5 % . X     . $ .     X                                 ",
"                                                : o . . $ % % $ . . $ % % $ . . o . . . .                                       ",
"                                                . s Z p 8 p m c A N y t 8 7 5 % 5 % $ .                                         ",
"                                                & 3.qX3Xl._.5XeXvXgX<X`.(.d.1.O.q 0 %         .                                 ",
"                                                  . J zXgXj.{.D.;X8XbXnX0X(.}.#X4X.Xp   X   $ .                                 ",
"                                                . : . J zXkX<X8.t.$XrXnXxXqX%Xe.W.#XlX` X X - $                                 ",
"                                                  : . . #.zXkX.Xu.w.*XmXnXbX8XW.W.,X7XjX]   % $                                 ",
"                                                    & . . <.VXgXOXw.h.=XmXSXvX4XW.#X+.dXSX~ $ $                                 ",
"                                                #   o o   g 3XCX8XL.e.G.<XcXVXkXoXe.4X8.fXAXd &                                 ",
"                                                        1 . U JXgX$XF.F.}.eXbXbXeXe.4X9.e.CX`.X                                 ",
"                                                  3 ,   4   + jXvX6XOXt.F.:XcXbXbX;X9.Q.y.4XSXH                                 ",
"                                                @   O     + # 3.JXeX@Xu.w.+XgXVXvXeXy.y.y.%XSX0X                                ",
"                                                      o     1 h LXMX-XN.N.J.9XGXGXgXP.V.v.H.lXFXg   o   o     X                 ",
"                                                +           o k IXDX:XM.B.J.,XFXFXlXI.m.x.Z.hXFXR   o   o                       ",
"                                                              O UXKXwXM.B.J..XFXFXCXY.x.V.Z.iXGX'       .   #                   ",
"                                                          o     yXLXwXq.B.J.|.FXHXJX-Xx.N.Z.9XKX^.    o     #                   ",
"                                                          o     yXLXwXq.K.J.|.GXHXJX-Xq.K.w.9XKX^.    +     #                   ",
"                                                                sXPX6Xq.K.J..XDXDXVX@Xq.r.t.iXKX'   O       +                   ",
"                                  .             @           o 4 BXVX;Xr.r.J.*XJXJXkX@Xr.r.L.hXKXE O ,   @                   O O ",
"                                . . .                       1 h LXvX-Xr.r.J.5XAXAXgX@Xy.r.oXlXKXj O 3   #                   O O ",
"                                . . .             3   o j     3.PXtX-XK.9.Z.eXSXvXgXOXr.9.$XJXsXO O O           o     # O   O , ",
"                                . . .               f     . . 2XJX7XL.J.J.-XgXvXSX{.w.OXu.6XZX`   O O + o . o o .           O O ",
"                                . . .           3   1   . u U ZXlX5XF.w.L.wXcXcXgX}.+Xw.oXZX2X4   O @ o     . . . . .     O   O ",
"                                  .                   = $ u ).DX6X+XF.C.H.eXbXvX}.;X+X4.8XVX~ . @ O       . . % . . . = =     O ",
"                                                  4   . $ Y MXDX+XF.D.{.5XcXbXeX+Xe.8.*XVX(.. .       . $ $ $ 5 * * $ .     @ @ ",
"                                                    . . S hXGX8XL.w.D.tXcXnXrXH.F.8.6XkX~.s .   X     & $ $ $ $ P #.J .     #   ",
"                                                4     g ].GXhX!.y.t.5XcXnXrX:Xw.w.$X7X(.:   i . o   . o . $ 8 M k.&Xl.! i .     ",
"                                                  = $ 2XKX>X>XE.oX$XvXSXtX`.D.F.;X6XJ X     o . .       . 7 L &XG.g.l.`.] o   = ",
"                                                  ^ dXlX1X>X1X7XCXAXlX7X*X X/.1.S i     X     . % . 3 O   r L I.:.}.j.<.` g . . ",
"                            . . .               = R ,./ A A W ^ ( ( / D A C p u 4 X X   @     . % . , O   & B S.S.:.F 9 = . . 7 ",
"                          . .                     = u % $ % 5 % . o $ $ % % $ .     X X @     . $ . > > O X v A.S.V 5 $     . $ ",
"                            .                         . $ = .       . $ $ % - o     X @ X     . $ . > > ,   7 :.Z.x % - +   & . ",
"                            .                   ; @                     . . o o   X X X     . $ . . > > ,   % | S.x $ . O   &   ",
"                          . . .                 X X           @ X X                       . $ $ $   @ , @   $ B S.v $ = O   o   ",
"                            . . . . . . . .         X ; ; @ X @ @ X X X X     .         . $ % $ $   , O X o * v A.B 7 1 @ @ X   ",
"                        . . . . . $ $ % % $ $ . o   X         O               . . $ $ $ $ 5 % % % . , O   ; 7 w I.P %   O O ; X ",
"# #           X   X o   : . * $ % m A 0 Q A 5 $ .   @ ;     g _ E 4   #     = $ i % 5 5 c c z 5 6 . 3 @     % n A.@.. # O X     ",
"        @       o   & $ $ . p / ). X7..X.X|.C e 5 i     E uXDXNXNXBX~.f     - $ % e ,./.,X.X.X4.A $     @   8 | S.*.$ o O @   X ",
"    + @ @       :   $ $ $ % #.).3.( D 4.e.,Xo.6 $ :   ) ZXJX1X,.R.pXCX'.s . i $ e 1.|.6.o.F  X[.j.D .   o . v =.S.*.7     X     ",
"+         X #   & . $ $ $ #.).#.. . 5 6 G 8..Xa 5 . g mXjXS 6 5 % $ ).PX~.. i $ <.[.o.0 6 5 )./.}.j.i   o 7 | c.v.:.M $         ",
"1         o =   . . 7 $ 8  X7.%   K <.a 0 F ,XQ 7 . ' PX( $ c D D % 7 2XvXs . *  X1.6 6 Q 7.3XZ P }.W . * L S.v.v.Z.&.i # X   o ",
"+   + + . = i . . $ % % c  XQ % E aXAX1X6 0 6./.$   qXSX& $ /.7. XD $ R PXK   R ).Y 6 Y MXPX2X$ 6 H.2.$ y g.Y.X.x.Z.g.i o X   . ",
"+ . 2 2 . i R g t $ 5 5 Z  XF 5 [ IXLXlXa 6 6.).* X xX0X  % j..Xj.Q % J SXK   ~ _.Z a <.PXLXqXd 6 C.7.$ y h.v.X.M.c.5.$   X   . ",
"+   1 . . g d.d.! S y 5 c *XF 5 k 0XNX<.a 6 /.<.$   sXBXs . S )._.7 $ ] SXK : i dXp % S dXjX] . l 8.4.5 w a.0.P.V.0.;.$ . = o . ",
"O O   4 . $ g.g.h.G.;.q 5 5.D.0 % % t % % / )./ .   ` BX^.  O + 1   j sXaXj   g ~._.p % a Z % % O.}.F 6 V S.c.v.0.I.O.% $ + + 2 ",
"O @   : . 7 g.;.;.C.a.b 6 B G.D.z 5 5 e W ).d.% . . g uXKX^.f > , T aXLX`   . . W ).7.Z 0 5 6 Q |.4.l 0 | S.0.z.=.I.O.% $ 2 < > ",
"  @   . . y p.@.:.c.S...0 6 | G.G.$.$.{. X$.m % $ i . g jXZXpXpXpXsXBX^.. . 9 $ % Q /.[.7.$.4.}.4.x 6 b b.S.z.n.c.U.L % . + > > ",
"  o   . $ 8 @.:.a.=.n.S.{ q q l ;.D.G.5.L 0 5 8 6 #.y $ d d.qXVXvX'.S . $ 5 8 m % 5 N $.D.D.:.| q 6 l *.S.z.i.m.S.s.n $ .   O > ",
"    . % $ 5 I a.=.....n.z.{ l 6 6 l q 5 5 0 5 5 B k.-.v % % 6 % $ $ $ $ 8 8 N -.B q 6 6 0 0 0 0 0 b ..A.z.i.m.i.U.I 7 $ $     , ",
"+   . % $ % v @.c.a.=.z.b.c...I w 6 5 q n w 5 w h.h.k.G.} z w % $ r L P % 7 %.&XG.@.B l 6 0 l x | a.I.b.i.U.T.s. .v $ . o   O , ",
"+   . $ $ % 5 n @.a.a.*.a.A.A.h.{.&.O.k.&.% % } G.g.%.G.G.g.h.g.l.f.2.M $ M {.l.G.G.:.*.;.:.a.a.h.G.A.a.a.A.s. .v % . . X   O > ",
"O O + . . $ $ % y L %.@.%.p.%.p.&.2.l.2.M % v g.&.k.%.&.p.-.p.%.f.f.m $ m 2.g.%.&.g.g.-.g.h.-.-.-.5.;.%.;.} v 8 $ . . .   > , > ",
"> > O O     . . $ $ % * 7 r r r * * $ $ $ * * 7 7 r 7 r 7 r 8 r * & & $ $ * * 7 7 7 7 7 8 8 8 8 8 8 8 6 5 % $ $ . .     O > > > ",
"> > > O O           . . o o & & . .       . o o . . . . . . . . o .       . o o . . . . . . . . % % % % $ $ . . .     O O > > > ",
"> > > > O O                                                                                     . . . . . . .       O O > > > > ",
"O O O O O O O   O O             O O           o                               o                             + +   O O O O O O O ",
"                    O   O O     + O         O                   o             o                 o       O O O O     O           ",
"                                                                                                                                ",
".                               . . . .                           . . .                                                         ",
". . . .                 . . . . . . . . . .                     . . . . . .                       X X X X X X X                 "
};
