/* XPM */
static char *_aa640390ec94f6ba4dfd354462d41e7mL4SNLdslzM1sSIB[] = {
/* columns rows colors chars-per-pixel */
"64 64 204 2 ",
"   c None",
".  c #010101",
"X  c #0A0603",
"o  c #0B0806",
"O  c #0C0A0B",
"+  c #050707",
"@  c #1D0D00",
"#  c #120D0A",
"$  c #130800",
"%  c #1A110B",
"&  c #15110F",
"*  c #110F11",
"=  c #151313",
"-  c #1A1513",
";  c #191619",
":  c #1C191C",
">  c #181719",
",  c #0F1111",
"<  c #210E00",
"1  c #221101",
"2  c #2A1706",
"3  c #361801",
"4  c #2E1E12",
"5  c #251A17",
"6  c #04281A",
"7  c #13271E",
"8  c #2B201D",
"9  c #27201E",
"0  c #352418",
"q  c #3F2102",
"w  c #211E22",
"e  c #1B2722",
"r  c #193125",
"t  c #2A252A",
"y  c #292627",
"u  c #342622",
"i  c #362B28",
"p  c #382A26",
"a  c #39312D",
"s  c #322D32",
"d  c #3E393F",
"f  c #3A343A",
"g  c #2E3233",
"h  c #431C00",
"j  c #492201",
"k  c #552A02",
"l  c #422C17",
"z  c #642A00",
"x  c #682B00",
"c  c #683603",
"v  c #683703",
"b  c #773501",
"n  c #432D25",
"m  c #4C352D",
"M  c #44302A",
"N  c #593B25",
"B  c #4A3B35",
"V  c #533B33",
"C  c #7D4204",
"Z  c #4B423C",
"A  c #55413B",
"S  c #6A4626",
"D  c #684437",
"F  c #734C3C",
"G  c #433C43",
"H  c #3C4142",
"J  c #4C444B",
"K  c #45484A",
"L  c #5A4943",
"P  c #534A52",
"I  c #584F58",
"U  c #4B5052",
"Y  c #5A545B",
"T  c #494E50",
"R  c #684D45",
"E  c #6A554F",
"W  c #7B5549",
"Q  c #695951",
"!  c #725C56",
"~  c #7E665E",
"^  c #655B65",
"/  c #695E69",
"(  c #645963",
")  c #5E6467",
"_  c #6C616C",
"`  c #646B6D",
"'  c #736968",
"]  c #726671",
"[  c #756975",
"{  c #7B6E7A",
"}  c #786C77",
"|  c #7E717D",
" . c #73736D",
".. c #873900",
"X. c #903C00",
"o. c #974903",
"O. c #8E4B05",
"+. c #B24B00",
"@. c #AB5A06",
"#. c #B25002",
"$. c #B96107",
"%. c #875A31",
"&. c #986637",
"*. c #A16B3A",
"=. c #AD733F",
"-. c #CA5500",
";. c #DA5C00",
":. c #CA6907",
">. c #D96F07",
",. c #ED6701",
"<. c #F46700",
"1. c #F76900",
"2. c #F86900",
"3. c #E47808",
"4. c #F97906",
"5. c #E35F00",
"6. c #845E51",
"7. c #885A47",
"8. c #8A6255",
"9. c #976A5B",
"0. c #93614D",
"q. c #B67942",
"w. c #B0745C",
"e. c #896F67",
"r. c #8B756B",
"t. c #93776E",
"y. c #9E7161",
"u. c #9A7C73",
"i. c #9D6F60",
"p. c #AA7867",
"a. c #BC7C63",
"s. c #B57861",
"d. c #35B67F",
"f. c #FE860A",
"g. c #FF880A",
"h. c #F68209",
"j. c #918877",
"k. c #BA806C",
"l. c #A4857B",
"z. c #BC8574",
"x. c #C68448",
"c. c #DF9451",
"v. c #D78F4E",
"b. c #E69A53",
"n. c #FAA65A",
"m. c #FEAA5C",
"M. c #C1846E",
"N. c #C28A76",
"B. c #C68D7A",
"V. c #C88E7B",
"C. c #C28773",
"Z. c #CA907C",
"A. c #767D80",
"S. c #837583",
"D. c #867986",
"F. c #8A7B8A",
"G. c #887A87",
"H. c #35B880",
"J. c #7F878A",
"K. c #63BE90",
"L. c #39C58A",
"P. c #68C796",
"I. c #8F808F",
"U. c #838B8E",
"Y. c #918291",
"T. c #9D9381",
"R. c #AD8C82",
"E. c #B08E84",
"W. c #A59B88",
"Q. c #B9968B",
"!. c #B6AB96",
"~. c #9AA4A8",
"^. c #AFBABE",
"/. c #C39E92",
"(. c #D59484",
"). c #C7A195",
"_. c #D3AA9E",
"`. c #F1A695",
"'. c #F1A897",
"]. c #FFB19F",
"[. c #D6ADA1",
"{. c #DBB1A4",
"}. c #CBBFA8",
"|. c #E5B8AA",
" X c #ECBEB1",
".X c #FAB7A7",
"XX c #EEC1B3",
"oX c #F1C3B5",
"OX c #FFC4B4",
"+X c #FECEBF",
"@X c #F5C7B9",
"#X c #BDC9CD",
"$X c #CAD7DB",
"%X c #C2CED3",
"&X c #FFCFC0",
"*X c #FFD1C2",
"=X c #E9DCC1",
"-X c #F7E9CC",
";X c #FFF3D5",
":X c #FFEFD2",
">X c #D9E7EC",
",X c #DEECF1",
"<X c #E0EFF4",
"1X c #E2F0F5",
/* pixels */
"                            . .                               . .                               . .                             ",
"                            . . .                         . . . . . .                         . . .                             ",
"                          . + O .               . . . . . . + G G + . . . .                   . O + .                           ",
"                          . Z Q .             . . O t G P = + ^ ^ + = P G G [ {               . Q Z .                           ",
"                          . r.}.- .       . . O G [ F.Y.F.: O _ _ O : F.Y.F.| [ y . .       . - }.r..                           ",
"                        . . W.;Xj.O . . . . : _ Y.Y.Y.Y.S.= = ] ] = = S.Y.Y.F.| Y ; . . . . O j.;XW.. .                         ",
"                        . . T.;X-XW.a . . w { Y.Y.Y.Y.Y.{ O ; ] ] ; O { Y.Y.Y.F.| ^ : . . a W.-X;XT.. .                         ",
"                          . ' ;X:X;XW.+ = [ Y.Y.Y.Y.Y.Y.[ + w [ [ w + [ Y.Y.Y.Y.D.{ ( * + W.;X:X;X' .                           ",
"                          . i =X;X-XZ . I Y.Y.Y.Y.Y.Y.Y._ . t } } t . _ Y.Y.Y.Y.I.| { J . Z -X;X=Xi .                           ",
"                          . . j.;X!.O w D.Y.Y.Y.Y.Y.Y.Y.^ . s { { s . ^ Y.Y.Y.Y.Y.F.{ ] : O !.;Xj.. .                           ",
"                            . = W. .. J Y.Y.Y.Y.Y.Y.Y.Y.Y . f { { f . Y Y.Y.Y.Y.Y.F.{ { G .  .W.= .                             ",
"                              . = - + ] Y.Y.Y.Y.Y.Y.Y.Y.P . G { { G . P Y.Y.Y.Y.Y.Y.S.{ Y + - = .                               ",
"                                . . = S.Y.Y.Y.Y.Y.Y.Y.Y.G . J { { J . G Y.Y.Y.Y.Y.Y.S.{ _ * . .                                 ",
"                                  . ; D.Y.Y.Y.Y.Y.Y.Y.Y.f . P { { P . f Y.Y.Y.Y.Y.Y.S.{ ] = .                                   ",
"                                  . = | Y.Y.Y.Y.Y.Y.Y.I.s . Y { { Y . s I.Y.Y.Y.Y.Y.S.{ / * .                                   ",
"                                  . . w Y D.Y.Y.Y.Y.Y.F.t + ( { { ( + t F.Y.Y.Y.Y.F.] J : . .                                   ",
"                                  . . . . ; d ( { D.I.F.: O / { { / O : F.I.D.{ ( f > . . . .                                   ",
"                                  . @ 3 . + . . O ; t f O O / { { / O O f t ; O . . + . 3 $ .                                   ",
"                                  . k c . e.u.R i - + . . . t / / t . . . + - i R u.e.. k j .                                   ",
"                                . . @.v . E.*X+X{.)./.R.t.i . = > . i t.R./.).{.+X*XE.. x o.. .                                 ",
"                                . 2 3.v . E.*XoXA Z oX*X*X|.R + + L |.*X*XoXZ A oX*XE.. z ;.1 .                                 ",
"                              . . C f.v . E.*X Xu u  X&X&X*X@XQ.Q.@X*X&X&X Xu u XX*XE.. z 1.b . .                               ",
"                              . 1 >.f.v . E.*X+X/./.+X+X{.l.! L L ! l.{.+X+X/./.+X*XE.. z 1.-.< .                               ",
"                          . . . O.f.f.v . E.*X+X*X*X{.! : . . X X . . : ! {.*X*X+X*XE.. z <.<.... . .                           ",
"                      . . . . 1 :.f.f.v . E.*X+X+Xl.9 . % S *.x.x.*.S % . 9 l.+X+X*XE.. z <.<.#.@ . . . .                       ",
"                    . + M R - . 1 $.g.v . E.*X@Xe.O X S v.n.m.m.m.m.n.v.S X O e.@X*XE.. z 1.+.< . & D n + .                     ",
"                  . . R N.V.p.8 . C g.v . E.&Xe.+ % *.n.m.m.m.m.m.m.m.m.n.*.% + e.&XE.. z 2.b . 8 0.a.a.D . .                   ",
"                . . 5 k.B.V.p.5 X $.g.v . R.R.O % q.m.m.m.m.b.=.=.b.m.m.m.m.q.% O R.R.. z 2.+.X 5 p.k.a.w.5 . .                 ",
"            . . o 8 8.B.B.p.p . v h.g.O.. L 9 X &.m.m.n.m.x.0 . . 0 x.m.n.m.m.&.X 9 L . ..1.,.z . p p.a.a.7.4 o . .             ",
"          . + V 9.z.B.B.N.m . j 3.f.f.:.@ . . S n.m.n.m.c.0 . B B . 0 b.m.n.m.n.S . . @ -.1.1.;.h . m C.a.a.s.0.m + .           ",
"          . V B.V.B.B.B.N.n . q o.3.f.f.C . 4 b.m.n.m.n.S . L oXoXL . S n.m.n.m.c.4 . b <.<.;.X.3 . n N.C.a.a.a.a.m .           ",
"          . p N.B.B.B.B.B.i.8 . . v f.h.k . &.m.m.n.m.q.o 9 {.*X*X{.5 o q.m.n.m.m.&.. j ,.<.z . . 8 i.B.B.M.a.a.s.0 .           ",
"          . 8 z.B.B.B.B.B.B.k.M . k f.$.X 0 b.n.n.m.b.l . t.&X&X&X&Xt.. l b.m.n.m.b.0 X +.<.j . M k.B.B.B.B.k.a.s.4 .           ",
"        . # 6.B.B.B.B.B.B.B.N.u . 2 v 3 . &.m.n.m.m.%.. X a L E E L a X . %.n.n.n.m.&.. 3 z 2 . u N.B.B.B.B.N.a.a.W O .         ",
"      . + W B.B.B.B.B.B.B.B.B.R # + . . % v.n.m.m.q.% X 1 X . . . . X 1 X # q.m.m.m.v.1 . . + # R B.B.B.B.B.B.M.a.a.F + .       ",
"      . m N.B.B.B.B.B.B.B.V.B.p.8.6.m . N n.m.m.v.4 X O.3.:.$.@.@.$.:.3.O.X 4 v.m.m.n.N . m 6.8.p.B.V.B.B.B.B.N.a.a.a.n .       ",
"    . . W V.B.B.B.B.B.B.B.9.m - # 5 & X =.m.m.x.0 . v h.f.f.g.g.g.g.f.f.4.c . 0 x.m.m.=.X & 5 # - m 9.B.B.B.B.B.k.a.a.F . .     ",
"      . p z.B.B.B.B.B.B.W # . : g > . 4 b.b.%.% . . k $.4.f.f.f.f.f.4.,.+.k . . % %.b.b.4 . > g : . # W B.B.B.B.M.a.s.0 .       ",
"      . 5 k.B.B.B.B.V.9.O , A.%X$XU . 0 S 4 . - L 5 . X o.g.f.f.f.4.2.X.X . 5 L - . 4 S 0 . U $X%XA., O 9.V.B.B.N.a.w.- .       ",
"    . + R B.B.B.B.B.z.p . J.,X1X~.O . . . . i ).+X|.~ . q 3.f.f.f.1.;.3 . ~ |.+X).i . . . . O ~.1X,XJ.. p z.B.B.N.a.a.D + .     ",
"    . m N.B.B.B.B.B.p.# g $X<X<X^.K K ) g . = t.@X*XXXB . b f.f.4.<.b . B XX*X@Xt.= . g ) K K ^.,X,X$Xg # p.B.B.B.k.a.a.n .     ",
"    . M N.B.B.B.B.V.9.X T >X,X,X,X>X>X<X` . . + E  X*Xe.. v f.f.4.<.z . e.*X XE + . . ` <X>X>X,X,X,X>XT X 9.V.B.B.k.a.s.n .     ",
"    . # p.V.B.V.V.Z.9.X H >X,X,X,X,X,X,XY . d : . B _.Q . @.g.f.4.2.o.. Q _.B . : d . Y ,X,X,X,X,X,X>XH X 9.Z.V.V.M.a.9.# .     ",
"    . 4 z.V.k.y.W A 8 . = ^.1X,X,X,X<X#Xe O { { t . u B . j 3.f.4.5.h . B y . t { { O e #X<X,X,X,X1X^.= . 8 A W y.s.a.w.5 .     ",
"  . + 6.9.V 5 + . . O - . d #X<X1X<X%XU . f I.Y.D.d + . . $ >.g.4.-.$ . X + d D.Y.I.f . U %X<X1X<X#Xd . - O . . + 5 m 7.W + .   ",
"  . # u + . = a Q u.).[.A . y ` U. .g . w | Y.Y.Y.F.P O . 3 >.3.>.-.3 . O P F.Y.Y.Y.| w . g  .U.` y . A [.).u.Q M # . + 0 # .   ",
"  . . . = r.[.@X&X*X*X*X/.O . . . . + s { Y.Y.Y.Y.Y.Y.^ O X 1 @ @ < X O ^ Y.Y.Y.Y.Y.Y.{ s + . . . . . l.*X*X*X&X.X(.8.# . . .   ",
"  . . . i oX*X+X+X+X+X*Xe.. s I J P ] F.Y.Y.Y.Y.Y.Y.Y.Y.J . + 7 6 + . J Y.Y.Y.Y.Y.Y.Y.Y.F.] P G J d . A @X+X+X+XOX].'.u . . .   ",
"      . i oX+X+X+X+X+XXXa + ] Y.Y.Y.Y.Y.Y.Y.Y.Y.Y.Y.Y.Y.{ O r K.d.6 O { Y.Y.Y.Y.Y.Y.Y.Y.Y.Y.Y.D.{ _ = = _.*X+X+XOX].`.u .       ",
"      . i oX+X+X+X+X*X/.O w F.Y.Y.Y.Y.Y.Y.Y.Y.Y.Y.Y.Y.Y.{ O r P.L.6 O { Y.Y.Y.Y.Y.Y.Y.Y.Y.Y.Y.F.{ { f . t.*X+X+XOX].`.u .       ",
"      . i oX+X+X+X+X*Xr.. J Y.Y.Y.Y.Y.Y.Y.Y.Y.Y.Y.Y.Y.Y.{ O r P.H.6 O { Y.Y.Y.Y.Y.Y.Y.Y.Y.Y.Y.F.| { P . L +X+X+XOX].`.u .       ",
"      . i oX+X+X+X+X+XL . ^ Y.Y.Y.Y.Y.Y.Y.Y.Y.Y.Y.Y.Y.Y.{ O + 7 6 + O { Y.Y.Y.Y.Y.Y.Y.Y.Y.Y.Y.Y.S.{ / O u  X+X+XOX].`.u .       ",
"      . i oX+X+X+X+XoXi O { Y.Y.Y.Y.Y.Y.Y.Y.Y.Y.Y.Y.Y.Y.P . $ @ @ $ . P Y.Y.Y.Y.Y.Y.Y.Y.Y.Y.Y.Y.D.{ [ : # _.*X+XOX].`.u .       ",
"      . i oX+X+X+X&X|.- ; D.Y.Y.Y.Y.Y.Y.Y.Y.Y.Y.Y.Y.Y.F.w X @.3.>.+.X w F.Y.Y.Y.Y.Y.Y.Y.Y.Y.Y.Y.G.{ { t X Q.*X+XOX].`.u .       ",
"      . B @X+X+X+X*X_.# y F.Y.Y.Y.Y.Y.Y.Y.Y.Y.Y.Y.Y.Y.D.> @ 3.g.4.;.@ > D.Y.Y.Y.Y.Y.Y.Y.Y.Y.Y.Y.F.{ { f . l.*X+XOX].`.u .       ",
"        [.+X+X+X+X*X/.+ t F.Y.Y.Y.Y.Y.Y.Y.Y.Y.Y.Y.Y.Y.F.s . o.f.4.X.. s F.Y.Y.Y.Y.Y.Y.Y.Y.Y.Y.Y.F.{ { d . t.*X+XOX].`.u .       ",
"        *X+X+X+X+X*XQ.+ s I.Y.Y.Y.Y.Y.Y.Y.Y.Y.Y.Y.Y.Y.Y./ + 1 :.-.< + / Y.Y.Y.Y.Y.Y.Y.Y.Y.Y.Y.Y.F.{ { G . r.*X+XOX].`.u .       ",
"        {.+X+X+X+X*X/.+ s I.Y.Y.Y.Y.Y.Y.Y.Y.Y.Y.Y.Y.Y.Y.I.G . 3 3 . G F.Y.Y.Y.Y.Y.Y.Y.Y.Y.Y.Y.Y.F.{ { G . r.*X+XOX].`.u .       ",
"      . Z @X+X+X+X*X).+ t F.Y.Y.Y.Y.Y.Y.Y.Y.Y.Y.Y.Y.Y.Y.Y.D.s . . s D.Y.Y.Y.Y.Y.Y.Y.Y.Y.Y.Y.Y.Y.F.{ { f . t.*X+XOX].`.u .       ",
"      . i oX+X+X+X*X_.# w F.Y.Y.Y.Y.Y.Y.Y.Y.Y.Y.Y.Y.Y.Y.Y.Y.S.J J S.Y.Y.Y.Y.Y.Y.Y.Y.Y.Y.Y.Y.Y.Y.F.{ { s . l.*X+XOX].`.u .       ",
"      . i oX&X+X+X*X|.5 = S.Y.Y.Y.Y.Y.Y.Y.Y.Y.Y.Y.Y.Y.Y.Y.Y.Y.Y.Y.Y.Y.Y.Y.Y.Y.Y.Y.Y.Y.Y.Y.Y.Y.Y.D.{ } y + Q.*X&XOX].`.u .       ",
"      . - Q.oXXXoXXX|.i + _ F.F.F.F.F.F.F.F.F.F.F.F.F.F.F.F.F.F.F.F.F.F.F.F.F.F.F.F.F.F.F.F.F.F.{ ] _ > & ).oXXX.X`.z.& .       ",
"      . . - u u u u u O . = : : : : : : : : : : : : : : : : : : : : : : : : : : : : : : : : : : ; > = . + y i u u 8 & . .       ",
"        . . . . . . . . . . . . . . . . . . . . . . . . . . . . . . . . . . . . . . . . . . . . . . . . . . . . . . . .         "
};
