/* XPM */
static char *_8036a910f71408ae236f5bfef4583beI1YnPKypYes4c341[] = {
/* columns rows colors chars-per-pixel */
"64 64 173 2 ",
"   c None",
".  c #000000",
"X  c #0A0604",
"o  c #0C0806",
"O  c #070A0E",
"+  c #0A0A0A",
"@  c #120D05",
"#  c #140C09",
"$  c #1A0E0C",
"%  c #151105",
"&  c #1B120D",
"*  c #090E13",
"=  c #0E1012",
"-  c #0F161E",
";  c #131414",
":  c #1B1C1C",
">  c #231410",
",  c #241811",
"<  c #2B1C14",
"1  c #291414",
"2  c #331918",
"3  c #341A18",
"4  c #20100F",
"5  c #2A210A",
"6  c #302017",
"7  c #342219",
"8  c #3A251B",
"9  c #1C2C3B",
"0  c #192737",
"q  c #1F2121",
"w  c #262828",
"e  c #323434",
"r  c #363939",
"t  c #3A3D3D",
"y  c #2E3030",
"u  c #451E1E",
"i  c #4E3E13",
"p  c #462A1F",
"a  c #4C2524",
"s  c #462D21",
"d  c #462521",
"f  c #542A29",
"g  c #552928",
"h  c #4D3224",
"j  c #533426",
"k  c #5C3B2B",
"l  c #573628",
"z  c #672D2D",
"x  c #623B2C",
"c  c #61302F",
"v  c #663231",
"b  c #6C3534",
"n  c #753A38",
"m  c #5A4716",
"M  c #755D1C",
"N  c #7C621E",
"B  c #62412E",
"V  c #664030",
"C  c #6D4834",
"Z  c #744A36",
"A  c #784A37",
"S  c #795039",
"D  c #23374A",
"F  c #3D4141",
"G  c #2E4966",
"H  c #2D4762",
"J  c #3B5C7B",
"K  c #324D66",
"L  c #464A4A",
"P  c #464949",
"I  c #4E5353",
"U  c #565A5A",
"Y  c #575B5B",
"T  c #5D6262",
"R  c #626666",
"E  c #656C6C",
"W  c #686D6D",
"Q  c #747A7A",
"!  c #7A7F7F",
"~  c #6B7070",
"^  c #913F3F",
"/  c #82403F",
"(  c #83553D",
")  c #8A563E",
"_  c #836F24",
"`  c #927423",
"'  c #9A4C4A",
"]  c #944645",
"[  c #895740",
"{  c #8B5B41",
"}  c #875940",
"|  c #985D45",
" . c #8B5D5C",
".. c #A24D4B",
"X. c #AA5452",
"o. c #B85A58",
"O. c #9C644A",
"+. c #986146",
"@. c #A56C4E",
"#. c #A86D4F",
"$. c #A8674C",
"%. c #B36B4E",
"&. c #AB6F51",
"*. c #B66E51",
"=. c #B77456",
"-. c #B97857",
";. c #AA7150",
":. c #D25A5A",
">. c #C4615F",
",. c #C37C5C",
"<. c #CC6562",
"1. c #C76260",
"2. c #DC6D6A",
"3. c #D46966",
"4. c #E66363",
"5. c #F56A6A",
"6. c #E6726F",
"7. c #FA7573",
"8. c #F57976",
"9. c #FF7E7B",
"0. c #F17774",
"q. c #F37371",
"w. c #B48F2B",
"e. c #AC922F",
"r. c #B7912C",
"t. c #BA942D",
"y. c #BB9E33",
"u. c #DAAD34",
"i. c #EDBB38",
"p. c #FBC73C",
"a. c #FFCA3D",
"s. c #C9845F",
"d. c #CD8660",
"f. c #CE8861",
"g. c #D48C64",
"h. c #3A5D83",
"j. c #3E6286",
"k. c #426789",
"l. c #46709E",
"z. c #4B77A8",
"x. c #507CA6",
"c. c #7E8484",
"v. c #5482AD",
"b. c #5685B2",
"n. c #5E96D3",
"m. c #639BCF",
"M. c #649DD4",
"N. c #6BA6DD",
"B. c #67A0DA",
"V. c #848B8B",
"C. c #888F8F",
"Z. c #808686",
"A. c #8C9393",
"S. c #939B9B",
"D. c #9BA2A2",
"F. c #A1ABAB",
"G. c #ACB4B4",
"H. c #B3BBBB",
"J. c #FE8D8A",
"K. c #B9C2C2",
"L. c #C5CECE",
"P. c #CAD3D3",
"I. c #CCDADA",
"U. c #C7D2D2",
"Y. c #D4DEDE",
"T. c #D4E4E4",
"R. c #DDE7E7",
"E. c #E2ECEC",
"W. c #ECE2E1",
"Q. c #E4F3F3",
"!. c #EBF6F6",
"~. c #EDF9F9",
"^. c #F4FFFF",
/* pixels */
"                                                              . . . . . . . . .                                                 ",
"                                                              . . O O O O O . .                                                 ",
"                                                              . O N.N.N.N.m.. .                                                 ",
"                                                              . O b.b.b.b.x.. .                                                 ",
"                                                              . . . . . . . . .                                                 ",
"                                                              . . . . . . . .                                                   ",
"                                                            . X X .                                                             ",
"                                                            . _ _ .                                                             ",
"                                                            . . . .                                                             ",
"                                                            . . . .                                                             ",
"                                                            . C C .                                                             ",
"                            . . . . . . . . . . . . . . . . . 7 7 . . . . . . . . . . . . . .                                   ",
"                          . . . . . . . . . . . . . . . . . . . . . . . . . . . . . . . . . . . .                               ",
"                          . m t.t.y.y.y.y.y.y.y.y.y.y.y.y.y.y.y.y.y.y.y.y.y.y.y.y.y.y.y.y.y.e.o .                               ",
"                          . m t.t.y.y.y.y.y.y.y.y.y.y.y.y.y.y.y.y.y.y.y.y.y.y.y.y.y.y.y.y.y.e.o .                               ",
"                          . . . . . . . . . . . . . . . . . . . . . . . . . . . . . . . . . . . .                               ",
"                            . . 2 z c v f . : R R R R X . v v v v $ . I R R R r . 2 v v v f . .                                 ",
"                              . u 5.5.9.8.o + !.^.^.^.P . >.9.9.9./ . c.^.^.^.K.. d 9.9.9.8.o .                                 ",
"                              . . 4.5.9.9.f . G.^.^.^.A.. n 9.9.9.3.. e ^.^.^.^.: . 0.9.9.9.f .                                 ",
"                              . . ] 5.7.9.X.. T ^.^.^.R.. & 9.9.9.9.1 . Y.^.^.^.R . ..9.9.9.X.. .                               ",
"                                . a 5.5.9.0.X ; ^.^.^.^.r . <.9.9.9.n . C.^.^.^.H.. a 9.9.9.0.. .                               ",
"                                . X 4.5.9.9.a . H.^.^.^.S.X <.9.9.9.<.. t ^.^.^.~.= X 0.9.9.9.a .                               ",
"                                . . ..5.7.9.' . W ^.^.^.^.W.9.9.9.9.9.$ . E.^.^.^.Y . X.9.9.9.' . .                             ",
"                                  . z 5.7.9.6.. w ^.^.^.^.^.J.9.9.9.9.v . F.^.^.^.D.. b 9.9.9.6.. .                             ",
"                                  . 3 5.5.9.9.> . !.^.^.^.E. .0.9.9.9.... Q ^.^.^.Y.. 3 9.9.9.9.4 .                             ",
"                                . . $ 5.5.9.9.d . I.^.^.^.C.. ' 9.9.9.>.. Y ^.^.^.^.X $ 9.9.9.9.d .                             ",
"                              . . . # 5.5.9.9.f . L.^.^.^.V.. ] 9.9.9.3.. I ^.^.^.^.; o 9.9.9.9.f .                             ",
"                            . . . . # 5.5.9.9.a . U.^.^.^.V.. ] 9.9.9.<.. I ^.^.^.^.+ # 9.9.9.9.a .                             ",
"                          . . .   . 2 5.5.9.9.2 . R.^.^.^.W . X.9.9.9.X.. R ^.^.^.Q.. 1 9.9.9.9.2 .                             ",
"                        . . .     . a 5.5.9.8.X ; ^.^.^.^.r . 3.9.9.9./ . A.^.^.^.K.. f 9.9.9.8.X .                             ",
"                        . .     . . ^ 5.7.9.o.. I ^.^.^.Q.+ # 9.9.9.9.3 . U.^.^.^.Q . ] 9.9.9.o.. . .                           ",
"                      . .       . . 4.5.9.9.g . D.^.^.^.A.. v 9.9.9.2.. w ^.^.^.^.: . 2.9.9.9.g . . . .                         ",
"                    . .         . u 5.q.9.2.. ; !.^.^.~.w . 1.9.9.9.c . V.^.^.^.D.. a 9.9.9.2.. .     . . .     . . . .         ",
"                  . .         . . :.5.9.9.a . Z.^.^.^.! . a 9.9.9.1.. ; Q.^.^.E.: . >.9.9.9.a .         . . .   . $ 3 .         ",
"                . .         . . > ^ ] ' b . X A.S.S.C.X . n ' ' ' > . L S.S.S.L . > ' ' ' b . .           . . . . s O.. .       ",
"              . . .         . . . . . . . . . . . . . . . . . . . . . . . . . . . . . . . . .                 . . s ,.& .       ",
"            . . .                                         . . s s . .                                         . . $ ,.k .       ",
"          . . .                                           . . ( ( . .                                         . . . O.O.. .     ",
"        . . .                                             . . < < . .               . . .                     . . . k ,.# .     ",
"      . . .                       . ; ^.^.Y . .         . . . . . . . .         . . . . . . .               . . C . & ,.l .     ",
"  . . . .                       . . Y ^.^.Q.~ + . .   . . - J v.v.J - . .   . . + Q K.L.D.t . .             . X s.< . O.| . .   ",
". . x $ . . .                 . . Q ^.^.^.^.^.P.: . . . 9 M.N.N.N.N.M.9 . . . : Y.^.^.^.^.^.Q . .           . h g.Z . k ,.# .   ",
". X *.j . . . .               . F ^.Q.T : e G.^.H.. . * m.N.J - - J N.M.* . . K.^.G.e : R Q.^.P .         . . -.g.-.. & ,.j .   ",
". . ) ) . > < . . .         . . F.^.U . X . X U.^.y . H B.j.. . . . k.N.K . r !.U.X . X . Y ^.G.. .     . . C g.g.g.< . $.[ . . ",
"  . l *.o . =.Z # . . . . . . . I.!.X = T.Q . c.^.T . j.M.9 . l.l.. 9 N.k.. T Q.c.. Q T.= + ^.R.. . . . . Z g.g.g.g.Z . [ =.. . ",
"  . & *.p . ( ,.d.{ h , # . . . U.Q.; X S.L . A.^.Y . h.n.D . G G . D N.k.. Y Q.C.. L S.X ; ^.Y.. . < k -.g.g.g.g.g.f.+.,.,.X . ",
"  . . O.A . 8 ,.d.g.g.g.g.g.k . A.Q.c.. . . : E.^.: . D n.z.. . . . v.N.D . : Q.T.: . . . V.^.S.. k g.g.g.g.g.g.g.g.g.d.,.,.# . ",
"  . . x %.@ . #.s.g.g.g.g.g.@.. q T.Q.F.R ! E.^.A.. . . z.n.z.H H b.N.b.. . . C.Q.T.Q R G.^.Q.: . @.g.g.g.g.g.g.g.g.g.,.,.,.X . ",
"    . & *.l . h ,.g.g.g.g.g.g.s . r I.Q.Q.Q.Q.A.X . . . = z.n.n.n.M.z.* . # X X A.Q.Q.Q.Q.I.r . h g.g.g.g.g.g.g.g.g.Z . O.&.. . ",
"    . . | $.@ . { d.g.g.g.g.g.< . . + I Q W w . . . . 7 . . 0 G G 0 . . . { { X . w W Q I + . 6 s.g.g.g.g.g.g.g.g.g.# . &.A . . ",
"      $ %.*.A . # #.g.g.g.g.( . < B X . . . . < j . 6 g.} & . . . . . . 6 g.g.;.7 . . . . . < f.g.g.g.g.g.g.g.g.g.S . 8 ,.8 .   ",
"        *.*.*.j . o O.g.g.s.# . #.g.d.O.( { -.s.# . &.g.g.g.@.} ( O.# . &.g.g.g.g.-.+.Z . . &.g.g.g.g.g.g.g.g.g.#.X . $.O.. .   ",
"          l ( *.j . X B s.B . j g.g.g.g.g.f.g.B . j g.g.g.g.g.f.g.B . j g.g.g.g.g.f.g.B . j g.g.g.g.g.g.g.g.g.O.o . C ,.< .     ",
"          . . Z *.x . . # . X -.g.g.g.s.8 . , . X ,.g.g.g.s.8 . , . X ,.g.g.g.s.8 . , . X ,.g.g.g.g.g.g.g.@.s . . V ,.k . .     ",
"            . . x s . % . . . X > < < & . % . . o < < < < & . % . . o < < < < & . % . . o < < < < < < , o . . # [ ,.V . .       ",
"              . . . @ i.r.5 . . . . . . @ i.r.5 . . . . . . @ i.r.5 . . . . . . @ i.r.5 . . . . . . . . X 8 S -.=.s . .         ",
"                . . ` a.a.i.. # =.=.< . ` a.a.i.. # =.=.< . ` a.a.i.. # =.=.< . ` a.a.i.. # =.=.=.=.=.-.,.,.=.V o . .           ",
"                . 5 p.a.a.M . $ x l . 5 p.a.a.M . , A k . 5 p.a.a.M . , A k . 5 p.a.a.M . , A A A A A V j < . . . .             ",
"              . . t.a.a.u.X . . . . . t.a.a.u.X . . . . . t.a.a.u.X . . . . . t.a.a.u.X . . . . . . . . . . . .                 ",
"              . i a.a.a.i . .   . . i a.a.a.i . .   . . i a.a.a.i . .   . . i a.a.a.i . .                                       ",
"            . . w.a.a.t.. .     . . w.a.a.t.. .     . . w.a.a.t.. .     . . w.a.a.t.. .                                         ",
"              . X N i.5 .         . X N i.5 .         . X N i.5 .         . X N i.5 .                                           ",
"                . . X . .           . . X . .           . . X . .           . . X . .                                           ",
"                  . . .               . . .               . . .               . . .                                             "
};
