/* XPM */
static char *_07a9a61890f4c8dd5007bfa012ac6a8Q5N9vWVpGQ46WZPG[] = {
/* columns rows colors chars-per-pixel */
"64 64 215 2 ",
"   c None",
".  c #010000",
"X  c #0B0504",
"o  c #0E0A05",
"O  c #0C0B0B",
"+  c #070708",
"@  c #120704",
"#  c #130A05",
"$  c #1C0B06",
"%  c #130D0A",
"&  c #1B0D09",
"*  c #191209",
"=  c #131414",
"-  c #1C1C1D",
";  c #1A1615",
":  c #0F0F10",
">  c #210C06",
",  c #230F09",
"<  c #25120C",
"1  c #2B140C",
"2  c #251A0A",
"3  c #37180E",
"4  c #2C1711",
"5  c #241B13",
"6  c #241D1A",
"7  c #2A1C11",
"8  c #3C1D13",
"9  c #331A13",
"0  c #2B231E",
"q  c #292119",
"w  c #362717",
"e  c #37260D",
"r  c #1F1F20",
"t  c #222223",
"y  c #2C2928",
"u  c #392D26",
"i  c #3B312C",
"p  c #373738",
"a  c #491B0E",
"s  c #431D12",
"d  c #4A1E10",
"f  c #4C2215",
"g  c #43231A",
"h  c #4E2A1E",
"j  c #572718",
"k  c #463319",
"l  c #573C15",
"z  c #672B19",
"x  c #79331D",
"c  c #6E301C",
"v  c #562D21",
"b  c #4C3A22",
"n  c #493727",
"m  c #513D27",
"M  c #453933",
"N  c #523D32",
"B  c #613325",
"V  c #6D3727",
"C  c #7A3925",
"Z  c #6A4B1B",
"A  c #78531E",
"S  c #724F1C",
"D  c #584327",
"F  c #57453C",
"G  c #4D4039",
"H  c #654D2D",
"J  c #7E4230",
"K  c #6F5035",
"L  c #5C4015",
"P  c #3F3F40",
"I  c #464647",
"U  c #545455",
"Y  c #5B5B5C",
"T  c #585758",
"R  c #504F51",
"E  c #675247",
"W  c #72584A",
"Q  c #776358",
"!  c #5F5F60",
"~  c #636263",
"^  c #6C6B6C",
"/  c #676768",
"(  c #7B7B7D",
")  c #747374",
"_  c #706F71",
"`  c #98361C",
"'  c #86331C",
"]  c #893C24",
"[  c #933D22",
"{  c #993F23",
"}  c #984429",
"|  c #835B20",
" . c #8A4834",
".. c #944E39",
"X. c #9E4C34",
"o. c #9A513C",
"O. c #8F422A",
"+. c #A44325",
"@. c #A7482B",
"#. c #B34E2F",
"$. c #A34B31",
"%. c #B64F30",
"&. c #A0543E",
"*. c #AE5033",
"=. c #BA5435",
"-. c #BC5536",
";. c #996A26",
":. c #88673D",
">. c #8F6629",
",. c #AC782A",
"<. c #B37D2C",
"1. c #CC5935",
"2. c #CB5E3C",
"3. c #C25634",
"4. c #D3613F",
"5. c #AA5A42",
"6. c #B45D44",
"7. c #916D52",
"8. c #BA6248",
"9. c #846D61",
"0. c #947A6D",
"q. c #A17963",
"w. c #C6684B",
"e. c #DD6642",
"r. c #DA6845",
"t. c #D16E51",
"y. c #D57152",
"u. c #DC7455",
"i. c #CF6D50",
"p. c #E06743",
"a. c #E16945",
"s. c #E16C48",
"d. c #E2714E",
"f. c #E27655",
"g. c #E47858",
"h. c #E67959",
"j. c #BA822E",
"k. c #C78A31",
"l. c #D89736",
"z. c #CF9033",
"x. c #E39E39",
"c. c #ECA43A",
"v. c #F7AC3D",
"b. c #F9AD3E",
"n. c #FDB13F",
"m. c #B88B53",
"M. c #B18650",
"N. c #9D8375",
"B. c #A48878",
"V. c #BF9076",
"C. c #C8985A",
"Z. c #D09A58",
"A. c #F8AE43",
"S. c #FBB247",
"D. c #FBB85B",
"F. c #EAA753",
"G. c #DAA562",
"H. c #E5AE67",
"J. c #EBB26A",
"K. c #E7B068",
"L. c #F4B96E",
"P. c #F9BB69",
"I. c #FCBF71",
"U. c #F7BC70",
"Y. c #FDC072",
"T. c #FFC16E",
"R. c #7F7F80",
"E. c #8B8A8C",
"W. c #848486",
"Q. c #939395",
"!. c #9D9C9E",
"~. c #979798",
"^. c #8F8F90",
"/. c #BA9B8A",
"(. c #AE9181",
"). c #9F9FA1",
"_. c #ABAAAC",
"`. c #A5A4A6",
"'. c #B5B4B7",
"]. c #AFAEB1",
"[. c #DBA587",
"{. c #C5A492",
"}. c #CFAC9A",
"|. c #FFBF9D",
" X c #F5B795",
".X c #E8AF91",
"XX c #DCB7A3",
"oX c #E3BCA8",
"OX c #E7C0AB",
"+X c #E9C2AD",
"@X c #FEC4A4",
"#X c #F3CAB5",
"$X c #FED4BD",
"%X c #FFC19E",
"&X c #BEBDC0",
"*X c #C0BFC3",
"=X c #C2C2C5",
"-X c #C8C7CA",
";X c #CECDD1",
":X c #D0CFD1",
">X c #D4D3D5",
",X c #D7D6DA",
"<X c #D8D7DB",
"1X c #DAD9DD",
"2X c #FFD9C1",
"3X c #FFD7C0",
"4X c #DEDDE1",
"5X c #E0DFE2",
"6X c #E4E3E6",
"7X c #E7E6E8",
"8X c #E8E7E9",
"9X c #E9E8EA",
"0X c #EAE9EB",
"qX c #ECEBED",
"wX c #EAE9EB",
/* pixels */
"        . . .                                               . . . .                                               . . .         ",
"      . O = .                                             . . - t O .                                             . = O .       ",
"      . ^ ) .                                           . + ^ ;X>X~.; .                                           . ) ^ .       ",
"    . . !.!.. .                                     . . . p 1XwX0XqX) . . .                                     . . ).!.. .     ",
"    . + _.-X; .                                 . . . . . T 0X0X8XqX!.. . . . .                                 . ; -X_.+ .     ",
"    . + _.8XU .                             . . X 8 C C . Y 0X0X0XwX!.. g  .w X .                               . U 8X_.+ .     ",
"    . . !.qX'.; .                       . . X f $.4.a.} . Y 0X0X8XqX!.. B h.u.5...y.                          . ; '.qX!.. .     ",
"      . ( 7X0XQ.O . .                 . . < O.4.p.e.p.} . Y 0X0X8XqX!.. B h.g.h.h.h. .. .                 . . O ^.0X7X( .       ",
"      . U <X7X7XQ.- . . .   . . . . . . s =.e.e.e.e.a.X.. Y 0X0X0XqX!.. B h.g.g.g.h.w.g . . . . . . . . . . - Q.7X7X<XU .       ",
"      . t =X4X7X0X=X~ ; . . . > $ . . f 2.e.e.e.e.e.d.&.. Y 0X0X0XqX!.. B h.g.g.g.f.h.t.h . . $ 1 X . . = ~ =X0X7X4X=Xt .       ",
"      . . E.<X1X6XwX6XT . $ c [ 3 . s 2.e.e.e.e.e.r.h.&.. Y 0X0X0XqX!.. B h.g.g.g.g.f.h.t.g . s @.[ 3 . y :XqX6X1X<XW.. .       ",
"        . p -X<X<X6X_.O @ x +.z . < =.e.e.e.e.e.r.f.h.&.. Y 0X0X0XqX!.. B h.g.g.g.g.g.f.h.w.1 . x %.@.3 . ^ 6X<X<X-Xp .         ",
"        . . ^ ,X<X>XI . z +.[ $ X O.p.e.e.e.e.e.f.g.h.&.. Y 0X0X0XqX!.. v g.g.g.g.g.g.g.g.h.o.X , @.#.O.@ ; '.<X,X^ . .         ",
"          . O E.<X].= $ [ +.j . f e.e.e.e.e.e.r.f.g.h.&.. Y 0X0X0XqX!.. v g.g.g.g.g.g.g.g.g.u.h . z #.#.f . ( 1XE.O .           ",
"            . = E.W.. a +.[ > X $.p.e.e.e.e.e.f.g.g.h.&.. Y 0X0X0XqX!.. v h.g.g.g.g.g.g.g.f.h.5.X < @.#.C . I W.= .             ",
"              . O t . j +.c . s e.e.e.e.e.e.r.f.h.h.h.&.. Y 0X0X0XqX!.. B h.h.h.h.h.h.h.h.h.h.u.g . C %.} X O O .               ",
"                . . . z +.d . C 2.2.2.2.2.2.w.t.t.t.y.... T 0X0X0XqX!.. v t.t.t.t.t.t.t.t.t.t.y.C . f #.} @ . .                 ",
"                  . . d { , . $ < , , , , , < < < < < & . U 4X6X6X6XQ.. X < < < < < < < < < < < & . , @.] . .                   ",
"                    . $ s . + ; - - - - - - - - - - r ; . U <X<X<X<XQ.. O - - - - - - - - - - - - O . 3 3 .                     ",
"                    . . . ; E.&X=X=X=X=X=X=X;X:X:X:X>XQ.. U <X,X,X<XQ.. T >X:X:X:X:X:X:X:X:X:X:X;X].I . . .                     ",
"                      . . ( 1X<X<X<X<X<X<X6X0X0X0X0XqX`.. U <X<X<X<XQ.. ~ qX0X0X0X0X0X0X0X0X0X0X0XqX&X; .                       ",
"                      . O `.<X,X<X<X<X,X<X6X0X0X0X0XqX`.. U <X<X<X<XQ.. ~ 0X0X0X0X0X0X0X0X0X0X0X0X0X1Xp .                       ",
"                      . . W.4X<X<X<X<X<X<X6X0X0X0X0XqX`.. U <X<X<X<XQ.. ~ wX0X0X0X0X0X0X0X0X0X0X0XqX=X; .                       ",
"                        . - Q.=X=X=X=X=X=X-X>X>X>X>X,XQ.. U <X<X<X<XQ.. T >X>X>X>X>X>X>X>X>X>X>X>X'.I . .                       ",
"                    . . . . + - t t t t t t t t t t t ; . I >X<X<X<X( . O t t t t t t t t t t t t : . . . .                     ",
"                  . . 0 n . * 2 # . * 5 5 6 6 6 q 6 6 6 O O E.>X,X].y . 6 6 6 q 6 6 6 6 6 5 . X 5 7 . 6 0 . .                   ",
"                  . u [.7.. A c.S . 7..X.X.XOXoX{.XXOX+X0.O O P I ; . E oXOXoX{.}.OXOXOX+X{.O w G.m.X N }.i .                   ",
"                . % V.@X7.. >.S.;.. W %X|.@X2X(.; B.2X$X$XB.y + . ; Q +X3X2XXXy Q $X$X$X2X/.. D Y.Z.o M $X/.O .                 ",
"                . n  X|.K . ,.n.k.# u  X|.@X$X0.. 9.$X$X$X$X+X{./.XX$X$X$X$X{.X G $X$X$X$XQ . :.Y.G.* 0 +X#Xi .                 ",
"                . N |.[.; * z.b.c.l m  X|.@X$X(.% N.2X$X$X#XoXoXoXOX#X$X$X2XXX6 E $X$X$XXX0 % C.Y.L.b . B.$XG .                 ",
"                . u .XF . Z v.v.b.c.F.|. X@X$X#X}.oX/.9.F u 6 ; ; 6 u F 9./.+X}.+X3X3X+XE . H I.Y.Y.M.X 0 {.i .                 ",
"                . % F + e l.b.v.v.b.b.Z.n E B.(.9.u + . . * 7 w w 7 * X . X u 9.{.{.N.M . w G.Y.I.Y.L.K . y O .                 ",
"                  . . X ,.b.v.b.b.b.b.k.2 . . . . o k :.m.G.K.J.J.K.G.m.:.k o . + + . . b Z.Y.I.Y.I.Y.H.w . .                   ",
"                  . . k c.b.b.b.b.b.b.v.z.>.Z H :.C.L.Y.Y.L.U.Y.Y.Y.L.Y.Y.L.C.K m b H M.J.Y.I.Y.Y.Y.Y.Y.:.. .                   ",
"                    . | b.v.b.b.b.b.v.b.b.b.A.P.Y.Y.Y.Y.H.b H G.H.7.w m.Y.Y.Y.Y.I.U.Y.Y.Y.I.Y.Y.Y.Y.Y.Y.C.o .                   ",
"                  . . ;.n.v.b.b.b.b.b.b.b.v.b.D.Y.Y.Y.Y.K.w . * 5 . % m.Y.Y.Y.Y.Y.Y.Y.Y.Y.Y.Y.Y.Y.Y.Y.Y.G.* .                   ",
"                    . | n.b.b.b.v.b.b.b.b.b.v.S.P.Y.Y.I.Y.G.H 7 5 b M.I.Y.Y.Y.Y.Y.Y.Y.Y.Y.Y.Y.Y.I.Y.Y.Y.C.o .                   ",
"                    . 2 <.z.l.b.b.b.b.b.b.b.v.A.P.Y.I.Y.I.Y.I.K.H.L.Y.Y.I.Y.Y.Y.Y.Y.Y.Y.Y.Y.Y.I.Y.J.Z.C.D . .                   ",
"                    . . X # e l.b.b.b.b.b.b.b.v.S.I.Y.Y.Y.I.Y.Y.Y.Y.I.Y.Y.Y.Y.Y.Y.Y.Y.Y.Y.Y.Y.Y.I.K o # . .                     ",
"                        . . # z.b.b.b.b.b.b.b.v.b.P.Y.I.Y.Y.Y.Y.Y.Y.Y.Y.Y.Y.Y.Y.Y.Y.Y.Y.Y.Y.Y.Y.L.b . . .                       ",
"                          . * l.b.b.b.b.b.b.b.b.v.S.P.Y.Y.Y.Y.Y.Y.Y.Y.Y.Y.Y.Y.Y.Y.Y.Y.Y.Y.Y.Y.Y.I.m .                           ",
"                        . . X k.b.b.b.b.b.b.b.b.v.v.D.I.Y.Y.Y.Y.Y.Y.Y.Y.Y.Y.Y.Y.Y.Y.I.Y.Y.Y.Y.Y.L.w . .                         ",
"                      . . = . A b.b.k.;.x.b.v.b.b.v.A.D.Y.Y.Y.Y.Y.Y.Y.Y.Y.Y.Y.Y.Y.Y.Y.U.M.M.L.Y.m.# O O .                       ",
"                    . . R `.; # Z S * . S b.b.b.b.b.v.A.P.Y.Y.Y.Y.Y.Y.Y.Y.I.Y.Y.Y.I.Y.M.o X D :.q . ( R.O .                     ",
"                  . . I >X0XE.; . . = O * j.n.b.x.c.b.v.A.P.Y.Y.Y.Y.Y.Y.I.Y.K.C.L.Y.K.k . ; . . + Y 1X6X( + .                   ",
"                  . y -XwX0X8X'.E.E.]._ . 2 | S 2 l x.b.v.A.P.Y.Y.Y.Y.I.Y.K.b o D 7.b . p ].Q.W.`.5X0X0X6XY . .                 ",
"                . . E.qX0X8X0XwXqX7X1X;X~ O . . . . Z c.b.b.A.D.I.Y.Y.Y.J.H . X . . . p '.1X6XqXqX0X8X8XwX=X; .                 ",
"                . t :X0X8X0X8X0X7X<X,X<X,X^ . 1 ..4 . k k.v.b.S.D.T.I.C.b . 4 5.v . p =X<X,X<X6X0X0X0X0X0X8XT .                 ",
"                . R 6X0X0X8X0X8X4X,X,X<X&Xy .  .h.8.8 . # l >.,.,.>.D * . 8 8.h.w.< O Q.<X<X,X<X6X0X0X0X8XqX^.. .               ",
"                . / wX0X8X0X8X4X<X,X<X;XR . 8 r.f.h.t.C & . . . . . . % C i.h.g.h.J . t ].<X,X,X<X6X0X0X0XqX_.+ .               ",
"                . ^ wX0X0X7X4X<X,X<X>X^ . . 8 e.f.g.h.h.... 0 K E N . v h.h.f.f.h.J . . p *X<X,X,X<X6X0X0XqX_.O .               ",
"                . ^ wX0X6X1X<X,X<X>X_ + @ X & 3.d.g.h.g.... N [.[.7.. v u.h.f.g.f.h . $ . I *X<X<X,X<X6X0XqX_.O .               ",
"                . ^ wX6X<X,X<X<X-X! + # C 3 . } s.f.t.B & . X * ; O . X g 8.h.h.t.1 # } 3 . p ].<X<X,X<X5XwX_.O .               ",
"                . ^ 6X<X,X<X<X].p . $ ] %.z . V a.f.J . @ > > > > > > $ . g y.h.6.X 3 3.#.s . r E.>X<X<X<X4X_.O .               ",
"                . / <X<X<X=X) ; . 1 [ #.#.] . 8 4.r.g . z ` ` ` ` ` ` ' $ % w.h.J . z 1.1.-.j . O U ].<X<X<X`.+ .               ",
"                . ~ ,X'.( y . . . c %.#.#.@.$ # =.a.B . 1 d a a a a d s . 1 i.u.g . O.1.1.1.@.# . . ; ! `.:X).+ .               ",
"                . t I ; . X f z . f #.#.#.@.d . ] p.6.9 . . . . . . . . % ..h.w.& $ #.1.1.1.[ . g V & . O p p . .               ",
"                . . . . . C e.=.@ , +.@.@.+.c . f e.a.i.o.4 . W q.5 X J 8.f.h.... d #.=.3.3.j .  .h.6.& . . . .                 ",
"                      . X *.p.4.3 . ' +.+.+.[ # $ -.e.f.h.B . W q.% 1 t.h.g.u.h . x #.#.#.@.1 X 6.h.u.9 .                       ",
"                      . # =.e.e.c . j +.+.+.+.s . ] p.r.g.6.& . . . J f.g.h.8.% $ } #.#.#.[ X 9 y.g.u.g .                       ",
"                      . # =.p.p.$.. 1 } +.+.+.c . 8 4.e.d.h.6.B v ..u.h.g.h.J . f #.#.#.#.z . V h.h.u.g .                       ",
"                      . . c 2.4.-.< X x { { { [ $ X $.4.r.t.y.y.y.y.y.y.y.i.9 . C @.@.@.@.1 . o.y.y.o.# .                       ",
"                        . . , 1 1 X . # > $ $ > X . & 1 1 4 4 4 4 4 4 4 4 1 . . $ , , , $ . . < 4 4 X .                         ",
"                          . . . . . . . . . . . . . . . . . . . . . . . . . . . . . . . . . . . . . .                           "
};
